Coordinates
version=1
nRows=22
nColumns=24
inDegrees=yes

Units are S.I. units (second, meters, Newtons, ...)
Angles are in degrees.

endheader
time	pelvis_tilt	pelvis_list	pelvis_rotation	pelvis_tx	pelvis_ty	pelvis_tz	hip_flexion_r	hip_adduction_r	hip_rotation_r	knee_angle_r	ankle_angle_r	subtalar_angle_r	mtp_angle_r	hip_flexion_l	hip_adduction_l	hip_rotation_l	knee_angle_l	ankle_angle_l	subtalar_angle_l	mtp_angle_l	lumbar_extension	lumbar_bending	lumbar_rotation
      4.06000000	     -4.34740739	     -7.63851330	     -1.11998244	      0.08796603	     -0.01503444	     -0.12716641	      9.82317629	     16.21933603	     12.90603573	    -16.35543444	     -0.56080399	     -5.07688985	      7.51757168	     32.76893113	     -8.84661239	     -6.82403726	    -67.47098559	     -7.07997786	     -6.97243221	     -8.84951290	      3.87069458	      6.47207180	     -1.61646949
      4.06500000	     -4.29022430	     -7.49858030	     -1.14093292	      0.09410787	     -0.01449356	     -0.12688687	      8.94824227	     16.05760348	     13.29168391	    -15.82662632	     -0.37165316	     -5.21991276	      7.28044327	     33.40395318	     -8.55376018	     -6.78366637	    -66.47118781	     -6.58399184	     -6.51733116	     -8.31202617	      3.77250893	      6.32922273	     -1.44139795
      4.07000000	     -4.37650031	     -7.33157866	     -1.14485951	      0.10022763	     -0.01413504	     -0.12675400	      8.28580874	     15.84104493	     13.51361006	    -15.35879753	     -0.17081702	     -5.23648230	      7.25508448	     34.16877668	     -8.18956113	     -6.73800444	    -65.38293041	     -6.13168709	     -6.22632821	     -8.13398885	      3.83269591	      6.17689596	     -1.34746592
      4.07500000	     -4.27174090	     -7.18760868	     -1.21887503	      0.10640413	     -0.01368363	     -0.12635658	      7.38811537	     15.67720873	     13.81355265	    -14.87058366	     -0.02019319	     -5.32248413	      7.16073619	     34.63998520	     -7.96671961	     -6.79747013	    -64.22407886	     -5.42899912	     -5.56883734	     -7.75945893	      3.67648235	      6.01992911	     -1.10971850
      4.08000000	     -4.35052605	     -7.02732937	     -1.21304101	      0.11253212	     -0.01348925	     -0.12621087	      6.73474431	     15.46696925	     14.02134106	    -14.42425427	      0.19190944	     -5.36455132	      7.16023013	     35.32615368	     -7.62607443	     -6.75878739	    -62.99515000	     -4.98310118	     -5.21360523	     -7.63105645	      3.72649228	      5.86678487	     -0.99949346
      4.08500000	     -4.24696417	     -6.88519975	     -1.28872668	      0.11871855	     -0.01318721	     -0.12586188	      5.86592423	     15.29566298	     14.27677315	    -13.97083254	      0.34431961	     -5.43919766	      7.15625162	     35.72174014	     -7.42056804	     -6.85147361	    -61.69136798	     -4.28129839	     -4.55324155	     -7.42842402	      3.57124859	      5.72671350	     -0.76507669
      4.09000000	     -4.24778381	     -6.72708025	     -1.31914518	      0.12487144	     -0.01306189	     -0.12566564	      5.15130410	     15.09607571	     14.47317485	    -13.56941332	      0.52463558	     -5.51809094	      7.19644351	     36.21409688	     -7.14653028	     -6.90330109	    -60.31026874	     -3.68659471	     -4.03686423	     -7.37040785	      3.53013401	      5.57915360	     -0.61122401
      4.09500000	     -4.23406388	     -6.57823755	     -1.36402579	      0.13102933	     -0.01298213	     -0.12546935	      4.43671730	     14.90790659	     14.65956450	    -13.19545658	      0.69871282	     -5.58743823	      7.27906158	     36.64538504	     -6.89546445	     -6.95372190	    -58.86315889	     -3.07267503	     -3.44708841	     -7.41605004	      3.48107292	      5.44791135	     -0.41699433
      4.10000000	     -4.32304123	     -6.41906205	     -1.38013749	      0.13712550	     -0.01309198	     -0.12534182	      3.88964232	     14.71444995	     14.77031138	    -12.90364166	      0.91308665	     -5.65805449	      7.35361016	     37.16338164	     -6.61066433	     -6.99076633	    -57.33713588	     -2.52822754	     -2.94621114	     -7.44256942	      3.53138453	      5.29790098	     -0.31562144
      4.10500000	     -4.27124113	     -6.27933208	     -1.44929359	      0.14328197	     -0.01312701	     -0.12514741	      3.15857461	     14.53957178	     14.94478994	    -12.57026968	      1.10294245	     -5.71441108	      7.49027557	     37.46614452	     -6.43285241	     -7.14811450	    -55.77486514	     -1.81989667	     -2.20879452	     -7.62647283	      3.43085755	      5.18977184	     -0.07572861
      4.11000000	     -4.29186004	     -6.12278380	     -1.49494492	      0.14939304	     -0.01329042	     -0.12503034	      2.55253008	     14.35197486	     15.07655655	    -12.30825404	      1.30057277	     -5.81343468	      7.62282553	     37.80996256	     -6.20726483	     -7.27859864	    -54.13042924	     -1.16633844	     -1.53987254	     -7.92450220	      3.40425655	      5.05628226	      0.08978269
      4.11500000	     -4.25366719	     -5.93838492	     -1.51072188	      0.15549451	     -0.01341502	     -0.12504554	      1.88797982	     14.12390642	     15.19117781	    -12.03390646	      1.37972101	     -6.04614112	      7.85503896	     38.04907285	     -5.92828697	     -7.44064158	    -52.45975712	     -0.30196088	     -0.81981555	     -9.34020302	      3.30574970	      4.90627304	      0.24792206
      4.12000000	     -4.42204244	     -5.82730953	     -1.54231759	      0.16147991	     -0.01391765	     -0.12497836	      1.53382418	     14.00711580	     15.22297467	    -11.92098453	      1.66108528	     -6.11162450	      7.93722733	     38.50564843	     -5.74897328	     -7.53638803	    -50.70900188	      0.22486174	     -0.13000642	     -9.32910838	      3.41670965	      4.82442652	      0.35891255
      4.12500000	     -4.44410009	     -5.71038936	     -1.63858002	      0.16752602	     -0.01427287	     -0.12486510	      0.99551809	     13.87544327	     15.33506594	    -11.78483526	      1.92334127	     -6.11384523	      8.03714993	     38.72162543	     -5.64740917	     -7.79766446	    -48.89433076	      0.84377856	      0.68600144	     -9.46449651	      3.37911804	      4.75488638	      0.60921839
      4.13000000	     -4.48202960	     -5.57770192	     -1.70637412	      0.17353227	     -0.01468218	     -0.12482043	      0.50444877	     13.72960106	     15.40738616	    -11.69228583	      2.18140837	     -6.16534360	      8.11629637	     38.91218599	     -5.50307539	     -8.04607543	    -47.00610043	      1.40013235	      1.45560569	     -9.70289757	      3.34631030	      4.66146648	      0.79162022
      4.13500000	     -4.52317090	     -5.46187180	     -1.77826009	      0.17950721	     -0.01515602	     -0.12479072	      0.04125623	     13.60564162	     15.46347877	    -11.64319308	      2.44488971	     -6.20317761	      8.19635186	     39.07226242	     -5.38819644	     -8.32887421	    -45.08156787	      1.94894365	      2.26288789	     -9.97716630	      3.30861044	      4.59050959	      0.98003861
      4.14000000	     -4.56761512	     -5.35732891	     -1.86126418	      0.18545750	     -0.01568822	     -0.12478436	     -0.40103207	     13.49292912	     15.50266221	    -11.62289959	      2.72475011	     -6.21738550	      8.27930663	     39.20102053	     -5.29774133	     -8.64882930	    -43.12480789	      2.48279279	      3.11219367	    -10.25711355	      3.26612319	      4.53434068	      1.16783776
      4.14500000	     -4.53081350	     -5.22591191	     -1.92817705	      0.19142420	     -0.01615163	     -0.12480775	     -0.91321868	     13.34894633	     15.50186380	    -11.64452359	      3.05144252	     -6.18535782	      8.32851900	     39.19152678	     -5.16659356	     -9.00444863	    -41.13581402	      3.09497879	      3.96699752	    -11.11201829	      3.14101851	      4.43894382	      1.33815823
      4.15000000	     -4.64305919	     -5.20518011	     -2.03315553	      0.19738185	     -0.01690342	     -0.12479460	     -1.25724781	     13.32925883	     15.53422673	    -11.67887937	      3.32596454	     -6.12867426	      8.44735876	     39.35632282	     -5.19515461	     -9.39216026	    -39.18472993	      3.62591867	      4.97300456	    -11.19046298	      3.17693705	      4.47742699	      1.51550721
      4.15500000	     -4.66831210	     -5.15070998	     -2.15310573	      0.20333868	     -0.01756132	     -0.12478526	     -1.68038944	     13.26549381	     15.54914929	    -11.74736938	      3.63789826	     -6.01047357	      8.58381414	     39.36956559	     -5.19419322	     -9.83882810	    -37.18258322	      4.10698613	      5.95663616	    -11.31890950	      3.10893674	      4.47624602	      1.72169286
      4.16000000	     -4.69290400	     -5.11365795	     -2.25990347	      0.20931824	     -0.01825581	     -0.12480661	     -2.09934722	     13.21269797	     15.54574133	    -11.82715112	      3.94291762	     -5.83853280	      8.73934700	     39.36639406	     -5.20539378	    -10.31961410	    -35.19576004	      4.55557665	      7.00192225	    -11.42655037	      3.04305194	      4.48922714	      1.88014865
      4.16500000	     -4.69797376	     -5.08723208	     -2.38261112	      0.21532482	     -0.01897331	     -0.12483345	     -2.53391457	     13.16291431	     15.52346519	    -11.92347605	      4.26868885	     -5.60124787	      8.93284296	     39.31933263	     -5.23078467	    -10.82833546	    -33.23304809	      5.01605906	      8.10294914	    -11.52626759	      2.95664101	      4.51476068	      2.06151626
